<svg id="Layer_1" data-name="Layer 1" xmlns="http://www.w3.org/2000/svg" viewBox="0 0 64 64"><defs><style>.cls-1{fill:#010101;}</style></defs><path class="cls-1" d="M32,15a4,4,0,0,0-2,.55,4,4,0,1,0,0,6.9A4,4,0,1,0,32,15Zm-6,4a2,2,0,0,1,2-2,1.75,1.75,0,0,1,.51.08,3.87,3.87,0,0,0,0,3.84A1.75,1.75,0,0,1,28,21,2,2,0,0,1,26,19Zm6,2a2,2,0,1,1,2-2A2,2,0,0,1,32,21Z"/><rect class="cls-1" x="5" y="21" width="12" height="2"/><rect class="cls-1" x="13" y="17" width="2" height="2"/><rect class="cls-1" x="9" y="17" width="2" height="2"/><rect class="cls-1" x="5" y="17" width="2" height="2"/><path class="cls-1" d="M58,15H39V4a3,3,0,0,0-3-3H4A3,3,0,0,0,1,4V24a3,3,0,0,0,3,3H33V58a5,5,0,0,0,5,5H58a5,5,0,0,0,5-5V20A5,5,0,0,0,58,15ZM39,24V21H57V33H39ZM37,9H3V7H37ZM4,3H36a1,1,0,0,1,1,1V5H3V4A1,1,0,0,1,4,3ZM3,24V11H37V24a1,1,0,0,1-1,1H4A1,1,0,0,1,3,24ZM61,58a3,3,0,0,1-3,3H38a3,3,0,0,1-3-3V27h1a3,3,0,0,0,1-.18V35H59V19H39V17H58a3,3,0,0,1,3,3Z"/><path class="cls-1" d="M57,53H55a2,2,0,0,0-2,2v2a2,2,0,0,0,2,2h2a2,2,0,0,0,2-2V55A2,2,0,0,0,57,53Zm0,4H55V55h2Z"/><path class="cls-1" d="M49,53H47a2,2,0,0,0-2,2v2a2,2,0,0,0,2,2h2a2,2,0,0,0,2-2V55A2,2,0,0,0,49,53Zm0,4H47V55h2Z"/><path class="cls-1" d="M41,53H39a2,2,0,0,0-2,2v2a2,2,0,0,0,2,2h2a2,2,0,0,0,2-2V55A2,2,0,0,0,41,53Zm0,4H39V55h2Z"/><path class="cls-1" d="M57,45H55a2,2,0,0,0-2,2v2a2,2,0,0,0,2,2h2a2,2,0,0,0,2-2V47A2,2,0,0,0,57,45Zm0,4H55V47h2Z"/><path class="cls-1" d="M49,45H47a2,2,0,0,0-2,2v2a2,2,0,0,0,2,2h2a2,2,0,0,0,2-2V47A2,2,0,0,0,49,45Zm0,4H47V47h2Z"/><path class="cls-1" d="M41,45H39a2,2,0,0,0-2,2v2a2,2,0,0,0,2,2h2a2,2,0,0,0,2-2V47A2,2,0,0,0,41,45Zm0,4H39V47h2Z"/><path class="cls-1" d="M57,37H55a2,2,0,0,0-2,2v2a2,2,0,0,0,2,2h2a2,2,0,0,0,2-2V39A2,2,0,0,0,57,37Zm0,4H55V39h2Z"/><path class="cls-1" d="M49,37H47a2,2,0,0,0-2,2v2a2,2,0,0,0,2,2h2a2,2,0,0,0,2-2V39A2,2,0,0,0,49,37Zm0,4H47V39h2Z"/><path class="cls-1" d="M41,37H39a2,2,0,0,0-2,2v2a2,2,0,0,0,2,2h2a2,2,0,0,0,2-2V39A2,2,0,0,0,41,37Zm0,4H39V39h2Z"/><path class="cls-1" d="M14,37A13,13,0,1,0,27,50,13,13,0,0,0,14,37Zm0,24A11,11,0,1,1,25,50,11,11,0,0,1,14,61Z"/><path class="cls-1" d="M14,45a2,2,0,0,1,2,2h2a4,4,0,0,0-3-3.86V41H13v2.14A4,4,0,0,0,14,51a2,2,0,1,1-2,2H10a4,4,0,0,0,3,3.86V59h2V56.86A4,4,0,0,0,14,49a2,2,0,0,1,0-4Z"/><rect class="cls-1" x="21" y="49" width="2" height="2"/><rect class="cls-1" x="5" y="49" width="2" height="2"/></svg>