<svg id="Layer_1" data-name="Layer 1" xmlns="http://www.w3.org/2000/svg" viewBox="0 0 64 64"><defs><style>.cls-1{fill:#1e1814;}</style></defs><rect class="cls-1" x="15" y="57" width="10" height="2"/><circle class="cls-1" cx="25" cy="6" r="1"/><circle class="cls-1" cx="15" cy="6" r="1"/><rect class="cls-1" x="18" y="5" width="4" height="2"/><path class="cls-1" d="M23,31H21v-.44a7.55,7.55,0,0,1,4.61-7l.78,1.84A5.57,5.57,0,0,0,23,30.56Z"/><path class="cls-1" d="M27.24,25.16l-.48-1.94a7.33,7.33,0,0,1,1.8-.22H29v2h-.44A5.36,5.36,0,0,0,27.24,25.16Z"/><path class="cls-1" d="M60,26H58.83a9.16,9.16,0,0,0-7.09-6.78A3.5,3.5,0,0,0,48.48,17h-3a3.5,3.5,0,0,0-3.16,2H39V6a5,5,0,0,0-5-5H6A5,5,0,0,0,1,6V58a5,5,0,0,0,5,5H34a5,5,0,0,0,5-5V44a13.22,13.22,0,0,0,4.22-1l.62,2.48A2,2,0,0,0,45.78,47h2.44a2,2,0,0,0,1.94-1.52L50.79,43a9,9,0,0,0,7.82-6.46l.14-.5H60a3,3,0,0,0,3-3V29A3,3,0,0,0,60,26ZM45.52,19h3A1.52,1.52,0,0,1,50,20.52a1.55,1.55,0,0,1-.11.56l-1.18,3A1.52,1.52,0,0,1,47.3,25h-.6a1.5,1.5,0,0,1-1.4-.95l-1.19-3a1.55,1.55,0,0,1-.11-.56A1.52,1.52,0,0,1,45.52,19ZM3,6A3,3,0,0,1,6,3H34a3,3,0,0,1,3,3V7H27.59l-2,2H14.41l-2-2H3ZM37,58a3,3,0,0,1-3,3H6a3,3,0,0,1-3-3V55H37Zm0-5H3V9h8.59l2,2H26.41l2-2H37V19H35V15a2,2,0,0,0-2-2H7a2,2,0,0,0-2,2V49a2,2,0,0,0,2,2H33a2,2,0,0,0,2-2V43.68A13.2,13.2,0,0,0,37,44ZM25.17,42.81l.67,2.67A2,2,0,0,0,27.78,47h2.44a2,2,0,0,0,1.94-1.52L32.78,43h0l.22.09V49H7V15H33v4H28.56A11.58,11.58,0,0,0,17,30.56v1.19A11.54,11.54,0,0,0,25.17,42.81ZM61,33a1,1,0,0,1-1,1H57.25l-.56,2A7,7,0,0,1,50,41h-.78l-1,4H45.78l-1-4h-2l-.21.11A11.31,11.31,0,0,1,38,42a11.48,11.48,0,0,1-4.55-.89L33.24,41h-2l-1,4H27.78l-1-3.82L26.24,41A9.55,9.55,0,0,1,19,31.75V30.56A9.57,9.57,0,0,1,28.56,21H42.05a3.39,3.39,0,0,0,.2.82l1.19,3A3.51,3.51,0,0,0,46.7,27h.6a3.51,3.51,0,0,0,3.26-2.21l1.19-3a3.21,3.21,0,0,0,.15-.53A7.16,7.16,0,0,1,57,27.14l.12.86H60a1,1,0,0,1,1,1Z"/><circle class="cls-1" cx="53" cy="26" r="1"/><path class="cls-1" d="M36,31a1,1,0,0,1-1-1V29h1a1,1,0,0,1,1,1h2a3,3,0,0,0-2-2.82V25H35v2H33v3a3,3,0,0,0,3,3,1,1,0,0,1,1,1v1H36a1,1,0,0,1-1-1H33a3,3,0,0,0,2,2.82V39h2V37h2V34A3,3,0,0,0,36,31Z"/></svg>