<?xml version="1.0" ?><svg viewBox="0 0 22.582 22.581" xmlns="http://www.w3.org/2000/svg"><g data-name="Layer 2" id="Layer_2"><g data-name="Layer 1" id="Layer_1-2"><path d="M15.054,2.167a.342.342,0,0,1,.342-.343h2.282a.343.343,0,0,1,0,.685H15.4A.342.342,0,0,1,15.054,2.167Zm2.624,18.589a.342.342,0,0,0,0-.684H15.4a.342.342,0,0,0,0,.684ZM21.784,0h-7.3a.342.342,0,1,0,0,.684h7.3A.114.114,0,0,1,21.9.8V3.649H15.4a.342.342,0,1,0,0,.684h6.5V18.247H15.4a.343.343,0,0,0,0,.685h6.5v2.851a.114.114,0,0,1-.114.114h-7.3a.342.342,0,0,0,0,.684h7.3a.8.8,0,0,0,.8-.8V.8A.8.8,0,0,0,21.784,0ZM14.37,19.958a2.626,2.626,0,0,1-2.623,2.623H2.623A2.626,2.626,0,0,1,0,19.958V2.623A2.626,2.626,0,0,1,2.623,0h9.124A2.626,2.626,0,0,1,14.37,2.623V6.4a4.9,4.9,0,0,1,0,9.774ZM.684,4a1.7,1.7,0,0,1,1.027-.351H12.659A1.7,1.7,0,0,1,13.686,4V2.623A1.941,1.941,0,0,0,11.747.684H2.623A1.941,1.941,0,0,0,.684,2.623Zm13,14.581a1.7,1.7,0,0,1-1.027.351H1.711a1.7,1.7,0,0,1-1.027-.351v1.377A1.941,1.941,0,0,0,2.623,21.9h9.124a1.941,1.941,0,0,0,1.939-1.939Zm0-2.4a4.9,4.9,0,0,1,0-9.774V5.36a1.029,1.029,0,0,0-1.027-1.027H1.711A1.029,1.029,0,0,0,.684,5.36V17.221a1.028,1.028,0,0,0,1.027,1.026H12.659a1.028,1.028,0,0,0,1.027-1.026Zm.342-.667a4.22,4.22,0,0,0,0-8.44A4.22,4.22,0,0,0,14.028,15.511Zm0-4.563c-.623,0-.938-.276-.938-.82-.007-.915,1.489-1.117,1.818-.283a.342.342,0,0,0,.631-.265,1.58,1.58,0,0,0-1.169-.92c.011-.272.035-.671-.342-.677s-.353.4-.342.675a1.5,1.5,0,0,0,.342,2.975c.625,0,.942.276.942.82.007.916-1.489,1.117-1.818.283a.342.342,0,0,0-.448-.183c-.668.45.468,1.318.982,1.367-.011.272-.036.672.342.678s.353-.4.342-.673A1.5,1.5,0,0,0,14.026,10.948Zm-2.736,0a.343.343,0,0,0,0,.685A.343.343,0,0,0,11.29,10.948Zm5.475,0a.343.343,0,0,0,0,.685A.343.343,0,0,0,16.765,10.948ZM3.751,20.173a.342.342,0,0,0,.484.484C4.555,20.345,4.059,19.861,3.751,20.173Zm3.435-.1a.342.342,0,0,0,0,.684A.342.342,0,0,0,7.186,20.073Zm2.947.1c-.309.316.177.8.488.484S10.449,19.865,10.133,20.173ZM7.185,2.509a.342.342,0,0,0,0-.684A.342.342,0,0,0,7.185,2.509ZM4.9,10.264H8.1a.342.342,0,0,0,0-.684H5.247V8.553a.345.345,0,0,0-.585-.241L1.925,11.049a.343.343,0,0,0,0,.484L4.662,14.27a.345.345,0,0,0,.585-.242V13H8.1a.342.342,0,0,0,0-.684H4.9c-.452,0-.327.6-.342.885L2.651,11.291,4.562,9.379C4.577,9.666,4.452,10.266,4.9,10.264Z" data-name="wire transfer" id="wire_transfer"/></g></g></svg>